<svg width="372" height="298" viewBox="0 0 372 298" fill="none" xmlns="http://www.w3.org/2000/svg">
<path d="M191.477 296.741C236.688 298.53 324.729 291.385 340.195 289.606C355.661 287.817 361.017 275.326 363.991 260.453C366.966 245.581 371.729 171.819 371.127 148.023C370.534 124.226 370.339 89.6396 368.152 68.9052C365.77 46.3044 363.389 26.0754 356.847 16.5588C351.52 8.8113 330.076 7.04214 330.076 7.04214C290.813 1.09302 191.467 0.500008 191.467 0.500008H180.21C180.21 0.500008 80.8637 1.09302 41.6015 7.04214C41.6015 7.04214 20.1574 8.8113 14.8304 16.5588C8.28833 26.0754 5.90674 46.3044 3.52515 68.9052C1.33797 89.6494 1.14355 124.226 0.550582 148.023C-0.0423866 171.819 4.71108 245.581 7.68564 260.453C10.6602 275.326 16.0164 287.817 31.4821 289.606C46.9479 291.395 134.989 298.53 180.2 296.741H191.457H191.477Z" fill="#060D02" stroke="#81F416" stroke-miterlimit="10"/>
</svg>
